<?xml version="1.0" encoding="UTF-8"?><svg id="Layer_1" xmlns="http://www.w3.org/2000/svg" viewBox="0 0 864 864"><defs><style>.cls-1{fill:#005063;}</style></defs><g id="Dodecahedron"><polygon class="cls-1" points="311.52 67.24 235.85 312.89 440.55 456.18 645.26 312.89 563.38 67.24 311.52 67.24"/><polygon class="cls-1" points="604.32 77.47 829.5 472.02 686.2 312.89 604.32 77.47"/><polygon class="cls-1" points="665.73 343.59 819.26 497.12 665.73 755.1 461.02 691.6 461.02 488.18 665.73 343.59"/><polygon class="cls-1" points="215.38 343.59 61.84 497.12 215.37 755.1 420.08 691.6 420.08 488.18 215.38 343.59"/><polygon class="cls-1" points="281.06 77.47 55.88 472.02 199.18 312.89 281.06 77.47"/><polygon class="cls-1" points="225.61 783.71 655.5 783.71 440.55 717.2 225.61 783.71"/></g></svg>