<?xml version="1.0" encoding="UTF-8"?><svg id="Layer_1" xmlns="http://www.w3.org/2000/svg" viewBox="0 0 864 864"><defs><style>.cls-1{fill:#005063;}</style></defs><g id="Icosahedron"><polygon class="cls-1" points="441 797.53 441 644 702.12 644 441 797.53"/><polygon class="cls-1" points="394 797.53 394 644 127.07 644 394 797.53"/><polygon class="cls-1" points="377.62 609.71 243 374 108.64 609.71 377.62 609.71"/><polygon class="cls-1" points="282 361 554 361 416.18 596.98 282 361"/><polygon class="cls-1" points="274.66 319 416.18 67.24 561.25 319 274.66 319"/><polygon class="cls-1" points="387.25 67.24 229.45 312.89 98.4 234.31 387.25 67.24"/><polygon class="cls-1" points="452.93 67.24 597.04 312.89 735.25 231 452.93 67.24"/><polygon class="cls-1" points="745.49 261.71 745.49 568.77 612.43 343.59 745.49 261.71"/><polygon class="cls-1" points="90.42 261.71 90.42 568.77 223.48 343.59 90.42 261.71"/><polygon class="cls-1" points="452.9 610 587.52 374.29 721.89 610 452.9 610"/></g></svg>