<?xml version="1.0" standalone="no"?>
<!DOCTYPE svg PUBLIC "-//W3C//DTD SVG 20010904//EN"
 "http://www.w3.org/TR/2001/REC-SVG-20010904/DTD/svg10.dtd">
<svg version="1.0" xmlns="http://www.w3.org/2000/svg"
 width="1728.000000pt" height="1728.000000pt" viewBox="0 0 1728.000000 1728.000000"
 preserveAspectRatio="xMidYMid meet">
<metadata>
Created by potrace 1.14, written by Peter Selinger 2001-2017
</metadata>
<g transform="translate(0.000000,1728.000000) scale(0.100000,-0.100000)"
fill="#000000" stroke="none">
<path d="M6364 15622 c-17 -2 -29 -29 -73 -170 -29 -92 -54 -174 -56 -182 -5
-21 -77 -253 -115 -375 -17 -55 -33 -104 -34 -110 -2 -11 -34 -116 -76 -250
-16 -49 -47 -148 -69 -220 -22 -71 -52 -168 -66 -215 -15 -47 -33 -105 -40
-130 -14 -51 -129 -422 -177 -575 -17 -55 -33 -104 -34 -110 -1 -5 -25 -84
-54 -175 -28 -91 -57 -185 -65 -210 -7 -25 -22 -74 -33 -110 -117 -381 -145
-473 -162 -525 -27 -84 -110 -351 -125 -405 -7 -25 -34 -112 -60 -195 -26 -82
-54 -172 -62 -200 -8 -27 -34 -113 -58 -190 -24 -77 -58 -187 -75 -243 -23
-72 -29 -107 -22 -114 9 -9 165 -119 545 -385 54 -37 135 -94 180 -125 45 -32
111 -78 147 -104 94 -67 379 -266 490 -342 52 -36 134 -94 182 -129 48 -35 90
-63 93 -63 3 0 13 -7 22 -15 10 -8 176 -125 368 -259 193 -135 386 -270 430
-301 44 -31 181 -128 305 -214 124 -87 306 -214 405 -283 99 -70 246 -173 328
-230 81 -57 207 -144 279 -195 l131 -92 81 56 c45 32 127 90 184 130 56 40
105 73 108 73 3 0 11 6 18 13 7 6 59 44 115 82 56 39 143 100 194 136 50 36
121 86 157 110 54 38 508 356 685 480 189 133 680 477 698 489 29 20 334 233
627 438 129 91 271 190 315 221 177 123 701 490 718 503 16 12 -3 74 -274 883
-160 479 -292 875 -293 880 -2 6 -6 17 -9 25 -6 17 -147 439 -151 455 -2 6 -6
17 -9 25 -6 16 -307 919 -311 935 -2 6 -6 17 -9 25 -7 17 -307 919 -311 935
-2 6 -6 17 -9 25 -3 8 -43 128 -88 265 -45 138 -84 252 -85 254 -4 5 -4768 8
-4800 3z"/>
<path d="M5695 15312 c-33 -58 -74 -131 -91 -161 -17 -31 -123 -216 -234 -411
-112 -195 -211 -368 -220 -385 -9 -16 -63 -111 -120 -210 -56 -99 -114 -200
-128 -224 -14 -25 -38 -67 -53 -93 -16 -27 -29 -51 -29 -54 0 -3 -8 -18 -18
-32 -11 -15 -32 -52 -49 -82 -17 -30 -62 -111 -102 -179 -39 -69 -71 -126 -71
-128 0 -1 -17 -31 -38 -65 -21 -35 -52 -88 -69 -118 -64 -117 -86 -155 -93
-165 -4 -5 -20 -32 -35 -60 -15 -27 -62 -110 -105 -185 -43 -74 -87 -152 -99
-172 -11 -21 -30 -54 -41 -73 -11 -19 -30 -52 -41 -72 -12 -21 -33 -58 -47
-83 -14 -25 -34 -58 -46 -75 -11 -16 -20 -32 -20 -35 1 -3 -4 -14 -11 -25 -12
-19 -148 -257 -203 -354 -14 -25 -38 -67 -53 -93 -16 -27 -29 -51 -29 -54 0
-3 -8 -18 -19 -32 -10 -15 -31 -49 -45 -77 -15 -27 -35 -63 -45 -80 -10 -16
-29 -50 -43 -75 -14 -25 -51 -90 -83 -145 -32 -55 -69 -120 -83 -145 -14 -25
-70 -124 -125 -220 -55 -96 -109 -190 -119 -209 -11 -19 -64 -111 -118 -206
-54 -95 -109 -190 -120 -211 -12 -21 -39 -68 -60 -104 -20 -36 -49 -85 -62
-110 -14 -25 -48 -83 -75 -130 -27 -47 -52 -92 -56 -100 -4 -8 -17 -31 -28
-50 -59 -98 -299 -521 -299 -527 0 -3 -6 -14 -14 -22 -7 -9 -27 -41 -43 -71
-17 -30 -65 -116 -108 -190 -43 -74 -97 -169 -120 -210 -36 -64 -116 -205
-188 -330 -11 -19 -46 -80 -77 -135 -79 -139 -230 -405 -248 -435 -22 -37 54
42 248 260 36 41 76 85 90 100 14 14 57 62 95 105 39 44 95 107 125 140 31 33
76 83 100 110 25 28 83 93 130 144 47 51 93 103 103 115 23 26 148 166 162
180 6 6 49 54 95 106 47 52 92 102 100 110 8 9 35 39 59 66 24 27 76 85 116
129 331 367 480 533 550 610 45 50 144 160 220 245 76 85 141 157 144 160 3 3
42 45 86 95 44 49 99 110 121 135 70 76 121 133 166 186 10 11 52 119 93 240
42 120 80 228 85 239 4 11 20 54 33 95 29 88 52 154 339 975 75 217 82 236
181 520 118 341 215 620 221 635 6 16 111 318 236 680 43 124 115 331 160 460
157 450 230 664 227 666 -1 1 -29 -45 -62 -104z"/>
<path d="M11965 15358 c13 -35 39 -108 58 -163 20 -55 63 -179 97 -275 34 -96
64 -186 66 -199 3 -13 9 -32 15 -42 5 -10 33 -89 63 -176 30 -87 104 -302 166
-478 61 -176 150 -430 196 -565 47 -135 103 -294 124 -355 47 -133 325 -932
421 -1210 157 -453 180 -520 255 -735 42 -124 86 -236 96 -249 10 -13 54 -63
97 -110 43 -47 102 -113 132 -146 80 -90 113 -127 124 -139 6 -6 113 -126 239
-266 126 -140 234 -260 240 -265 6 -6 44 -48 85 -95 41 -47 81 -92 90 -100 9
-9 34 -36 55 -60 31 -36 160 -178 211 -234 6 -6 64 -72 130 -146 66 -74 129
-144 140 -155 11 -12 51 -57 90 -100 38 -44 81 -92 95 -106 14 -15 54 -59 90
-99 36 -40 70 -78 75 -84 6 -6 46 -51 90 -101 44 -49 87 -97 95 -105 8 -8 53
-58 100 -110 47 -52 102 -113 122 -135 20 -22 46 -51 58 -65 40 -47 216 -241
308 -340 23 -25 42 -48 42 -52 0 -5 4 -8 9 -8 5 0 -23 55 -61 123 -39 67 -84
147 -101 177 -16 30 -33 60 -37 65 -5 6 -20 33 -36 60 -15 28 -36 64 -46 80
-10 17 -21 37 -25 45 -4 8 -26 47 -48 85 -23 39 -55 95 -72 125 -31 57 -87
154 -103 180 -8 12 -108 188 -235 415 -13 22 -46 81 -75 130 -29 50 -64 110
-78 135 -14 25 -186 326 -382 670 -196 344 -368 645 -382 670 -14 25 -39 69
-57 98 -17 29 -31 55 -31 58 0 3 -8 18 -18 32 -11 15 -35 56 -54 92 -20 36
-65 116 -102 178 -36 62 -66 115 -66 117 0 2 -19 36 -43 77 -24 40 -56 96 -72
123 -15 28 -64 113 -108 190 -44 77 -91 160 -105 185 -14 25 -36 62 -49 82
-12 21 -23 40 -23 42 0 2 -19 37 -43 78 -24 40 -57 98 -74 128 -16 30 -91 161
-165 290 -74 129 -149 260 -165 290 -17 30 -64 111 -103 180 -40 69 -84 145
-98 170 -14 25 -50 88 -80 140 -30 52 -66 115 -80 140 -14 25 -60 106 -102
180 -43 74 -87 151 -97 170 -11 19 -29 51 -41 70 -11 19 -131 231 -267 470
-136 239 -276 484 -311 543 -35 60 -64 110 -64 112 0 2 -13 26 -29 53 -15 26
-41 70 -56 98 -43 77 -107 184 -110 184 -2 0 7 -28 20 -62z"/>
<path d="M12785 10104 c-181 -128 -352 -250 -380 -269 -100 -71 -355 -251
-570 -403 -637 -449 -760 -537 -763 -544 -2 -5 -7 -8 -12 -8 -5 0 -102 -67
-217 -148 -175 -125 -697 -493 -868 -614 -27 -19 -140 -98 -250 -176 -110 -78
-209 -147 -219 -154 -10 -7 -31 -22 -45 -33 -14 -12 -51 -38 -81 -58 -30 -21
-82 -57 -115 -81 l-60 -43 -1 -1946 -1 -1946 46 -15 c25 -8 208 -65 406 -126
198 -61 491 -152 650 -201 160 -50 301 -94 315 -99 14 -5 79 -25 145 -45 66
-20 183 -56 260 -80 77 -24 199 -62 270 -84 72 -22 191 -59 265 -82 74 -24
140 -44 145 -45 6 -1 84 -26 175 -54 91 -28 257 -80 370 -115 113 -35 315 -98
450 -140 319 -99 420 -129 423 -124 2 2 70 117 152 254 81 138 168 283 193
324 26 41 53 87 62 103 8 15 42 73 75 128 33 56 65 109 70 118 6 9 28 46 49
82 22 36 44 74 50 85 11 19 307 517 474 795 41 69 82 139 92 155 9 17 44 75
77 130 33 55 69 116 80 135 11 19 74 125 140 235 67 110 130 216 140 235 11
19 60 103 110 185 49 83 197 330 328 550 131 220 299 504 375 630 377 634 460
775 460 784 0 8 -2928 2943 -2933 2940 -1 0 -150 -106 -332 -235z"/>
<path d="M3032 8865 l-1463 -1464 82 -138 c45 -76 90 -151 98 -166 19 -33 30
-53 52 -87 9 -14 90 -149 179 -300 215 -363 429 -722 500 -840 31 -52 137
-230 235 -395 98 -165 203 -343 235 -395 32 -52 131 -219 220 -370 89 -151
170 -286 179 -300 8 -14 21 -34 27 -45 6 -11 131 -222 279 -470 269 -452 690
-1160 793 -1332 30 -51 59 -93 64 -93 5 0 68 18 141 41 355 110 641 198 727
225 41 12 251 77 465 144 215 67 417 130 450 140 146 45 373 115 660 205 171
53 362 112 425 132 63 19 126 38 140 43 38 13 193 61 210 65 8 2 94 29 190 59
96 30 243 75 325 100 83 26 156 50 164 54 12 7 14 295 13 1927 0 1056 -1 1931
-1 1945 -1 21 -21 40 -108 101 -60 41 -241 169 -403 284 -162 115 -320 226
-350 247 -30 21 -89 63 -130 92 -41 29 -169 119 -285 201 -115 82 -242 171
-282 199 -40 28 -168 119 -284 201 -117 83 -242 171 -278 196 -228 160 -786
555 -838 593 -34 25 -66 46 -72 46 -5 0 -11 3 -13 8 -3 6 -142 107 -323 234
-27 19 -104 73 -170 120 -66 46 -175 124 -243 171 -67 48 -128 87 -135 86 -7
0 -670 -659 -1475 -1464z"/>
<path d="M8735 3170 c-33 -10 -98 -30 -145 -45 -47 -15 -112 -35 -145 -45 -33
-10 -125 -38 -205 -63 -80 -25 -212 -66 -295 -92 -82 -25 -208 -64 -280 -86
-71 -23 -193 -60 -270 -84 -77 -24 -205 -64 -285 -88 -80 -25 -203 -64 -275
-86 -71 -22 -211 -65 -310 -96 -99 -31 -187 -58 -195 -60 -8 -2 -51 -15 -95
-29 -44 -13 -147 -45 -230 -71 -82 -26 -172 -54 -200 -63 -27 -8 -54 -17 -60
-18 -5 -1 -55 -17 -110 -34 -86 -27 -191 -59 -245 -75 -8 -2 -139 -43 -290
-90 -151 -48 -297 -93 -324 -100 -26 -8 -51 -16 -54 -19 -3 -3 1836 -6 4087
-6 2726 0 4090 3 4086 10 -3 6 -15 10 -25 10 -11 0 -29 4 -42 9 -13 6 -84 28
-158 51 -74 23 -169 53 -210 66 -116 36 -491 152 -630 194 -69 21 -388 120
-710 220 -322 100 -598 186 -615 190 -16 4 -163 49 -325 100 -283 88 -581 180
-1111 344 -135 42 -252 76 -260 75 -8 0 -41 -9 -74 -19z"/>
</g>
</svg>
